# xmcd
#
# Track frame offsets: 
#        183
#        40040
#        58630
#        88753
#        124123
#        164370
#        176818
#
# Disc length: 2600 seconds
#
# Revision: 5
# Processed by: cddbd v1.5.2PL0 Copyright (c) Steve Scherf et al.
# Submitted via: ExactAudioCopy v1.0b3
#
DISCID=580a2607
DTITLE=Mercadante, Saverio (1785-1870) - Tre concerti - Flute - Clarin
DTITLE=ette - Horn [The Masterplayers, dir. Richard Schumacher]
DYEAR=1986
DGENRE=Classical
TTITLE0=Concerto for flute and strings Opus 57: I. Allegro maestoso
TTITLE1=Concerto for flute and strings Opus 57: II. Largo
TTITLE2=Concerto for flute and strings Opus 57: III. Rondo russo (allegr
TTITLE2=o vivace e scherzando)
TTITLE3=Concerto for Clarinet and Chamber orchestra Opus 101: I. Allegro
TTITLE3=maestoso
TTITLE4=Concerto for Clarinet and Chamber orchestra Opus 101: II. Andant
TTITLE4=e con variazioni
TTITLE5=Concerto for Horn and Chamber orchestra: I. Larghetto alla sicil
TTITLE5=iana
TTITLE6=Concerto for Horn and Chamber orchestra: II. Allegretto brillant
TTITLE6=e (Polacca)
EXTD=Maxence Larrieu (Flute), \nKarl Leister (Clarinet),\nHerman Bauma
EXTD=nn (Horn), \nThe Masterplayers\nRichard Schumacher (Dir]\n\nEnter
EXTD=ed by Alfred Brajn\nalfbrajn@poczta.onet.pl
EXTT0=
EXTT1=
EXTT2=cherzando)
EXTT3=llegro maestoso
EXTT4=ndante con variazioni
EXTT5=
EXTT6=acca)
PLAYORDER=
